<svg width="126" height="289" viewBox="0 0 126 289" fill="none" xmlns="http://www.w3.org/2000/svg">
<path d="M7.90977 278.22C14.6137 273.651 23.2543 274.649 27.2091 280.451" stroke="#5F523E" stroke-width="0.3"/>
<path d="M7.90977 278.22C14.6137 273.651 16.8424 265.243 12.8876 259.441" stroke="#5F523E" stroke-width="0.3"/>
<path d="M53.7995 17.0488C58.1108 6.37306 70.5172 1.714 81.3288 0.605124C85.2885 0.199001 90.3759 -0.167692 94.2158 1.02083C100.67 3.01866 99.3726 18.7773 99.2043 23.3768C98.1198 53.0213 82.5385 85.1072 60.3585 104.902C57.0041 107.896 41.7118 118.42 42.1596 107.674C42.7026 94.6401 61.7347 87.402 71.906 84.9482C87.5993 81.1623 116.59 79.9744 122.946 99.4519C127.3 112.795 124.446 130.212 120.406 143.148C112.798 167.5 97.3128 189.74 81.3749 209.338C60.3042 235.248 36.1887 259.839 8.07129 278.115" stroke="#5F523E" stroke-width="0.3" stroke-linecap="round" stroke-linejoin="round"/>
</svg>
