<svg width="188" height="61" viewBox="0 0 188 61" fill="none" xmlns="http://www.w3.org/2000/svg">
<path d="M39.8229 19.46C38.3229 19.46 36.9063 19.1184 35.5729 18.435C34.2396 17.735 33.1396 16.71 32.2729 15.36C31.4229 14.01 30.9979 12.4767 30.9979 10.76C30.9979 8.04338 31.8396 5.81838 33.5229 4.08505C35.2229 2.35171 37.2979 1.48505 39.7479 1.48505C40.4813 1.48505 41.2563 1.56838 42.0729 1.73505C42.9063 1.90171 43.4146 1.98504 43.598 1.98504C44.048 1.98504 44.4063 1.60171 44.6729 0.835045C44.7063 0.785046 44.7479 0.785046 44.7979 0.835045L46.823 8.06005C46.823 8.12671 46.7896 8.16005 46.723 8.16005C46.6563 8.16005 46.623 8.12671 46.623 8.06005C45.7396 5.64338 44.5813 3.96005 43.148 3.01005C41.9479 2.17671 40.7396 1.76004 39.5229 1.76004C37.7229 1.76004 36.1729 2.51005 34.8729 4.01005C33.5729 5.49338 32.9229 7.46005 32.9229 9.91005C32.9229 12.4934 33.6979 14.5934 35.2479 16.21C36.7979 17.81 38.7063 18.61 40.9729 18.61C44.1229 18.61 46.4813 16.7517 48.0479 13.035C48.1146 12.9684 48.1813 12.96 48.248 13.01C48.3313 13.06 48.3479 13.1267 48.2979 13.21C46.3979 17.3767 43.573 19.46 39.8229 19.46ZM55.4591 19.485C53.5257 19.485 51.9674 18.9184 50.7841 17.785C49.6174 16.635 49.0341 15.1017 49.0341 13.185C49.0341 11.3017 49.7007 9.71005 51.0341 8.41005C52.3507 7.09338 53.9924 6.43505 55.9591 6.43505C57.8757 6.43505 59.4091 7.01005 60.5591 8.16005C61.7257 9.31005 62.3091 10.8267 62.3091 12.71C62.3091 14.5934 61.6424 16.2017 60.3091 17.535C58.9757 18.835 57.3591 19.485 55.4591 19.485ZM55.9091 19.185C57.1424 19.185 58.2341 18.6684 59.1841 17.635C60.1341 16.6017 60.6091 15.2017 60.6091 13.435C60.6091 11.535 60.1007 9.92671 59.0841 8.61005C58.1007 7.29338 56.7924 6.67671 55.1591 6.76005C53.9757 6.81005 52.9424 7.35171 52.0591 8.38505C51.1757 9.41838 50.7341 10.7934 50.7341 12.51C50.7341 14.3267 51.2091 15.9017 52.1591 17.235C53.1257 18.535 54.3757 19.185 55.9091 19.185ZM68.8808 19.485C68.3808 19.485 67.8224 19.4017 67.2058 19.235C66.5558 19.0517 66.1308 18.96 65.9308 18.96C65.5641 18.96 65.2724 19.1934 65.0558 19.66C65.0391 19.6767 65.0141 19.685 64.9808 19.685C64.9474 19.685 64.9308 19.6767 64.9308 19.66L64.0308 14.385C64.0308 14.3517 64.0558 14.335 64.1058 14.335C64.1558 14.335 64.1808 14.3517 64.1808 14.385C64.3808 15.085 64.7141 15.8767 65.1808 16.76C66.1974 18.41 67.4058 19.235 68.8058 19.235C69.7891 19.235 70.5724 18.9017 71.1558 18.235C71.7558 17.5517 72.0558 16.6767 72.0558 15.61C72.0558 14.81 71.7891 14.0934 71.2558 13.46C70.7391 12.8434 70.0891 12.535 69.3058 12.535C68.9558 12.535 68.5974 12.5767 68.2308 12.66C68.1141 12.71 67.9474 12.7934 67.7308 12.91C67.5141 13.01 67.3141 13.1017 67.1308 13.185C66.9641 13.2517 66.8391 13.285 66.7558 13.285C66.5058 13.285 66.3808 13.185 66.3808 12.985C66.3808 12.835 66.4391 12.7267 66.5558 12.66C66.6891 12.5767 66.8974 12.5184 67.1808 12.485C67.4641 12.435 67.6724 12.385 67.8058 12.335C68.9891 12.085 69.8558 11.71 70.4058 11.21C70.9558 10.71 71.2308 10.0184 71.2308 9.13505C71.2308 8.36838 70.9891 7.78505 70.5058 7.38505C70.0391 6.96838 69.3724 6.76005 68.5058 6.76005C67.8558 6.76005 67.2474 6.92671 66.6808 7.26005C66.6308 7.52671 66.5474 7.79338 66.4308 8.06005C66.3974 8.29338 66.3058 8.56005 66.1558 8.86005C65.8724 9.59338 65.5308 9.96005 65.1308 9.96005C64.9474 9.96005 64.7891 9.89338 64.6558 9.76005C64.5224 9.62671 64.4558 9.46838 64.4558 9.28505C64.4558 8.65171 64.9058 8.02671 65.8058 7.41005C66.7224 6.79338 67.6808 6.48505 68.6808 6.48505C69.9474 6.48505 70.9808 6.71005 71.7808 7.16005C72.5808 7.61005 72.9808 8.24338 72.9808 9.06005C72.9808 9.77671 72.6891 10.385 72.1058 10.885C71.4224 11.385 70.2808 11.8684 68.6808 12.335L68.2558 12.46C69.0224 12.31 69.5808 12.235 69.9308 12.235C71.0141 12.235 71.9391 12.5434 72.7058 13.16C73.4891 13.7934 73.8808 14.61 73.8808 15.61C73.8808 16.66 73.4058 17.5767 72.4558 18.36C71.5058 19.11 70.3141 19.485 68.8808 19.485ZM88.056 18.985V19.035C88.056 19.4017 88.0643 19.81 88.081 20.26C88.1143 21.16 88.131 21.8184 88.131 22.235C88.131 22.3017 88.106 22.335 88.056 22.335C88.006 22.3184 87.9726 22.285 87.956 22.235C87.9393 20.235 86.656 19.235 84.106 19.235H78.956C76.406 19.235 75.1226 20.235 75.106 22.235C75.106 22.3017 75.081 22.335 75.031 22.335C74.981 22.3184 74.9476 22.285 74.931 22.235C74.931 21.3684 74.9393 20.71 74.956 20.26C74.956 20.0767 74.956 19.885 74.956 19.685C74.9726 19.485 74.981 19.335 74.981 19.235C74.9976 19.135 75.006 19.0684 75.006 19.035V18.985H76.656L76.506 18.935C77.5726 17.7017 78.181 15.5767 78.331 12.56L78.381 11.36C78.4143 10.4767 78.456 9.81005 78.506 9.36005C78.5726 8.42671 78.4726 7.76838 78.206 7.38505C77.956 7.00171 77.2143 6.81005 75.981 6.81005C75.881 6.81005 75.831 6.78505 75.831 6.73505C75.831 6.66838 75.881 6.63505 75.981 6.63505C76.531 6.63505 77.131 6.65171 77.781 6.68505C78.431 6.70171 78.7643 6.71005 78.781 6.71005H85.856L86.606 6.68505C87.106 6.65171 87.5726 6.63505 88.006 6.63505C88.0726 6.63505 88.106 6.66005 88.106 6.71005C88.0893 6.76005 88.056 6.79338 88.006 6.81005C87.106 6.81005 86.5393 6.97671 86.306 7.31005C86.0893 7.62671 85.981 8.31005 85.981 9.36005V18.985H88.056ZM76.831 18.985H84.581V6.96005H78.856C78.856 7.72671 78.7893 9.17671 78.656 11.31L78.581 12.51C78.481 14.2767 78.2893 15.635 78.006 16.585C77.7226 17.5517 77.331 18.3517 76.831 18.985ZM94.0132 19.485C92.9465 19.485 92.0882 19.2184 91.4382 18.685C90.7882 18.135 90.4632 17.4017 90.4632 16.485C90.4632 15.3517 91.1465 14.3767 92.5132 13.56C93.8799 12.7434 96.2049 12.0934 99.4882 11.61V10.36C99.4882 9.16005 99.1465 8.26005 98.4632 7.66005C97.7965 7.06005 97.0382 6.76005 96.1882 6.76005C95.4382 6.76005 94.5132 7.00171 93.4132 7.48505C93.2132 8.53505 92.9965 9.28505 92.7632 9.73505C92.5299 10.1684 92.1882 10.385 91.7382 10.385C91.5049 10.385 91.3132 10.31 91.1632 10.16C91.0132 10.01 90.9382 9.82671 90.9382 9.61005C90.9382 8.89338 91.5215 8.18505 92.6882 7.48505C93.8715 6.78505 95.1215 6.43505 96.4382 6.43505C99.4382 6.43505 100.938 7.75171 100.938 10.385V17.685C100.938 18.4517 101.213 18.835 101.763 18.835C102.28 18.835 102.738 18.5767 103.138 18.06C103.155 18.01 103.197 18.0184 103.263 18.085C103.28 18.1017 103.288 18.135 103.288 18.185C102.572 19.0517 101.855 19.485 101.138 19.485C100.055 19.485 99.5132 18.8517 99.5132 17.585V14.86H99.4632C99.0965 15.9934 98.4049 17.06 97.3882 18.06C96.4049 19.01 95.2799 19.485 94.0132 19.485ZM94.7132 18.41C95.7465 18.41 96.6799 18.0434 97.5132 17.31C98.3632 16.56 99.0215 15.6517 99.4882 14.585V11.86C96.3715 12.26 94.2965 12.9017 93.2632 13.785C92.3965 14.5017 91.9632 15.2434 91.9632 16.01C91.9632 16.71 92.2215 17.285 92.7382 17.735C93.2715 18.185 93.9299 18.41 94.7132 18.41ZM117.255 18.985V19.035C117.255 19.4017 117.264 19.81 117.28 20.26C117.314 21.16 117.33 21.8184 117.33 22.235C117.33 22.3017 117.305 22.335 117.255 22.335C117.205 22.3184 117.172 22.285 117.155 22.235C117.139 20.235 115.855 19.235 113.305 19.235H108.155C105.605 19.235 104.322 20.235 104.305 22.235C104.305 22.3017 104.28 22.335 104.23 22.335C104.18 22.3184 104.147 22.285 104.13 22.235C104.13 21.3684 104.139 20.71 104.155 20.26C104.155 20.0767 104.155 19.885 104.155 19.685C104.172 19.485 104.18 19.335 104.18 19.235C104.197 19.135 104.205 19.0684 104.205 19.035V18.985H105.855L105.705 18.935C106.772 17.7017 107.38 15.5767 107.53 12.56L107.58 11.36C107.614 10.4767 107.655 9.81005 107.705 9.36005C107.772 8.42671 107.672 7.76838 107.405 7.38505C107.155 7.00171 106.414 6.81005 105.18 6.81005C105.08 6.81005 105.03 6.78505 105.03 6.73505C105.03 6.66838 105.08 6.63505 105.18 6.63505C105.73 6.63505 106.33 6.65171 106.98 6.68505C107.63 6.70171 107.964 6.71005 107.98 6.71005H115.055L115.805 6.68505C116.305 6.65171 116.772 6.63505 117.205 6.63505C117.272 6.63505 117.305 6.66005 117.305 6.71005C117.289 6.76005 117.255 6.79338 117.205 6.81005C116.305 6.81005 115.739 6.97671 115.505 7.31005C115.289 7.62671 115.18 8.31005 115.18 9.36005V18.985H117.255ZM106.03 18.985H113.78V6.96005H108.055C108.055 7.72671 107.989 9.17671 107.855 11.31L107.78 12.51C107.68 14.2767 107.489 15.635 107.205 16.585C106.922 17.5517 106.53 18.3517 106.03 18.985ZM133.437 19.135C133.504 19.135 133.537 19.16 133.537 19.21C133.521 19.26 133.487 19.2934 133.437 19.31C133.004 19.31 132.546 19.3017 132.062 19.285L131.312 19.235H130.137L129.387 19.285C128.887 19.3017 128.421 19.31 127.987 19.31C127.921 19.31 127.887 19.285 127.887 19.235C127.904 19.185 127.937 19.1517 127.987 19.135C128.887 19.135 129.454 18.9684 129.687 18.635C129.904 18.3184 130.012 17.6267 130.012 16.56V9.33505V8.61005L122.037 17.86C122.104 18.3434 122.271 18.6767 122.537 18.86C122.821 19.0434 123.304 19.135 123.987 19.135C124.054 19.135 124.087 19.16 124.087 19.21C124.071 19.26 124.037 19.2934 123.987 19.31C123.554 19.31 123.096 19.3017 122.612 19.285L121.862 19.235H120.687L119.962 19.285C119.462 19.3017 118.996 19.31 118.562 19.31C118.496 19.31 118.462 19.285 118.462 19.235C118.479 19.185 118.512 19.1517 118.562 19.135C119.446 19.135 120.004 18.9684 120.237 18.635C120.454 18.3184 120.562 17.6267 120.562 16.56V9.33505C120.562 8.28505 120.454 7.60171 120.237 7.28505C120.004 6.95171 119.446 6.78505 118.562 6.78505C118.496 6.78505 118.462 6.76005 118.462 6.71005C118.479 6.66005 118.512 6.62671 118.562 6.61005C118.996 6.61005 119.462 6.61838 119.962 6.63505L120.687 6.68505H121.862L122.612 6.63505C123.096 6.61838 123.554 6.61005 123.987 6.61005C124.054 6.61005 124.087 6.63505 124.087 6.68505C124.071 6.73505 124.037 6.76838 123.987 6.78505C123.104 6.78505 122.546 6.95171 122.312 7.28505C122.096 7.60171 121.987 8.28505 121.987 9.33505V16.56C121.987 17.0434 121.996 17.3434 122.012 17.46L129.962 8.18505C129.912 7.65171 129.746 7.28505 129.462 7.08505C129.196 6.88505 128.704 6.78505 127.987 6.78505C127.921 6.78505 127.887 6.76005 127.887 6.71005C127.904 6.66005 127.937 6.62671 127.987 6.61005C128.421 6.61005 128.887 6.61838 129.387 6.63505L130.137 6.68505H131.312L132.062 6.63505C132.546 6.61838 133.004 6.61005 133.437 6.61005C133.504 6.61005 133.537 6.63505 133.537 6.68505C133.521 6.73505 133.487 6.76838 133.437 6.78505C132.554 6.78505 131.996 6.95171 131.762 7.28505C131.546 7.60171 131.437 8.28505 131.437 9.33505V16.56C131.437 17.6267 131.546 18.3184 131.762 18.635C131.996 18.9684 132.554 19.135 133.437 19.135ZM151.477 19.11C151.544 19.11 151.577 19.135 151.577 19.185C151.56 19.235 151.527 19.2684 151.477 19.285C151.044 19.285 150.577 19.2684 150.077 19.235L149.327 19.21L148.202 19.235C148.135 19.235 147.86 19.2434 147.377 19.26C146.894 19.2934 146.452 19.3184 146.052 19.335C145.985 19.3517 145.952 19.335 145.952 19.285C145.919 19.2017 145.952 19.16 146.052 19.16C146.952 19.1267 147.51 18.96 147.727 18.66C147.944 18.3434 148.052 17.6434 148.052 16.56V7.81005L143.427 14.36L143.952 15.185C143.369 15.6184 143.077 15.9184 143.077 16.085L143.027 16.135L136.927 7.98505V15.335C136.927 16.5517 137.177 17.4934 137.677 18.16C138.177 18.81 138.919 19.135 139.902 19.135C139.969 19.135 140.002 19.16 140.002 19.21C139.985 19.26 139.952 19.2934 139.902 19.31C139.519 19.31 138.877 19.2934 137.977 19.26C137.527 19.2434 137.127 19.235 136.777 19.235L136.027 19.285C135.527 19.3017 135.06 19.31 134.627 19.31C134.56 19.31 134.527 19.285 134.527 19.235C134.544 19.185 134.577 19.1517 134.627 19.135C135.527 19.135 136.094 18.9684 136.327 18.635C136.56 18.2684 136.677 17.56 136.677 16.51C136.677 12.71 136.669 10.335 136.652 9.38505C136.652 8.31838 136.535 7.61838 136.302 7.28505C136.069 6.95171 135.502 6.78505 134.602 6.78505C134.535 6.78505 134.502 6.76005 134.502 6.71005C134.519 6.66005 134.552 6.62671 134.602 6.61005C135.035 6.61005 135.51 6.61838 136.027 6.63505L136.777 6.68505H137.652L143.252 14.16L148.552 6.68505H149.327L150.077 6.63505C150.577 6.61838 151.044 6.61005 151.477 6.61005C151.544 6.61005 151.577 6.63505 151.577 6.68505C151.56 6.73505 151.527 6.76838 151.477 6.78505C150.577 6.78505 150.01 6.95171 149.777 7.28505C149.56 7.60171 149.452 8.28505 149.452 9.33505V16.535C149.452 17.6017 149.56 18.2934 149.777 18.61C150.01 18.9434 150.577 19.11 151.477 19.11ZM14.9844 54.135C15.051 54.135 15.0844 54.16 15.0844 54.21C15.0677 54.26 15.0344 54.2934 14.9844 54.31C14.551 54.31 14.0927 54.3017 13.6094 54.285L12.8594 54.235H11.6844L10.9594 54.285C10.4594 54.3017 9.99271 54.31 9.55938 54.31C9.49271 54.31 9.45938 54.285 9.45938 54.235C9.47604 54.185 9.50938 54.1517 9.55938 54.135C10.4427 54.135 11.001 53.9684 11.2344 53.635C11.451 53.3184 11.5594 52.6267 11.5594 51.56V41.935H3.85938V51.56C3.85938 52.6267 3.96771 53.3184 4.18438 53.635C4.41771 53.9684 4.97604 54.135 5.85938 54.135C5.92604 54.135 5.96771 54.16 5.98438 54.21C5.96771 54.26 5.92604 54.2934 5.85938 54.31C5.42604 54.31 4.95938 54.3017 4.45938 54.285L3.73438 54.235H2.58438L1.85938 54.285C1.35938 54.3017 0.892708 54.31 0.459375 54.31C0.392708 54.31 0.359375 54.285 0.359375 54.235C0.376042 54.185 0.409375 54.1517 0.459375 54.135C1.34271 54.135 1.90104 53.9684 2.13438 53.635C2.35104 53.3184 2.45938 52.6267 2.45938 51.56V44.36C2.45938 43.31 2.35104 42.6267 2.13438 42.31C1.90104 41.9767 1.34271 41.81 0.459375 41.81C0.392708 41.81 0.359375 41.785 0.359375 41.735C0.376042 41.685 0.409375 41.6517 0.459375 41.635C0.892708 41.635 1.35938 41.6517 1.85938 41.685L2.58438 41.71H12.8594L13.6094 41.685C14.0927 41.6517 14.551 41.635 14.9844 41.635C15.051 41.635 15.0844 41.66 15.0844 41.71C15.0677 41.76 15.0344 41.7934 14.9844 41.81C14.0844 41.81 13.5177 41.9767 13.2844 42.31C13.0677 42.6267 12.9594 43.31 12.9594 44.36V51.56C12.9594 52.6267 13.0677 53.3184 13.2844 53.635C13.5177 53.9684 14.0844 54.135 14.9844 54.135ZM25.1576 41.46C25.741 41.46 26.316 41.5684 26.8826 41.785C27.466 41.985 28.016 42.3017 28.5326 42.735C29.066 43.1517 29.491 43.7434 29.8076 44.51C30.141 45.2767 30.3076 46.16 30.3076 47.16C30.3076 48.1934 30.1076 49.185 29.7076 50.135C29.3076 51.085 28.7743 51.8767 28.1076 52.51C26.7076 53.8267 25.241 54.485 23.7076 54.485C22.791 54.485 21.941 54.3267 21.1576 54.01C20.3743 53.6934 19.766 53.3017 19.3326 52.835V57.81C19.3326 58.86 19.4743 59.5517 19.7576 59.885C20.041 60.2184 20.7743 60.385 21.9576 60.385C22.0576 60.385 22.1076 60.41 22.1076 60.46C22.1076 60.5267 22.0576 60.56 21.9576 60.56C21.391 60.56 20.791 60.5434 20.1576 60.51C19.5243 60.4934 19.1993 60.485 19.1826 60.485H18.0326L17.3076 60.535C16.8076 60.5517 16.341 60.56 15.9076 60.56C15.841 60.56 15.8076 60.535 15.8076 60.485C15.8243 60.435 15.8576 60.4017 15.9076 60.385C16.791 60.385 17.3493 60.2184 17.5826 59.885C17.7993 59.5684 17.9076 58.8767 17.9076 57.81V45.76C17.9076 44.61 17.791 43.8184 17.5576 43.385C17.341 42.9517 16.9076 42.7184 16.2576 42.685C16.2076 42.6684 16.1826 42.6434 16.1826 42.61C16.1993 42.5767 16.2243 42.5517 16.2576 42.535C17.0076 42.385 17.766 42.0184 18.5326 41.435C18.616 41.3684 18.666 41.3684 18.6826 41.435C19.0993 42.1517 19.291 43.335 19.2576 44.985H19.3076C19.641 44.535 20.0076 44.0934 20.4076 43.66C20.691 43.36 21.0826 43.01 21.5826 42.61C22.5326 41.8434 23.7243 41.46 25.1576 41.46ZM23.9326 42.235C23.316 42.235 22.6743 42.4267 22.0076 42.81C21.3243 43.21 20.841 43.5684 20.5576 43.885C20.241 44.2184 19.8326 44.7017 19.3326 45.335V50.96C19.6993 51.7434 20.316 52.46 21.1826 53.11C22.0493 53.7267 22.9576 54.035 23.9076 54.035C25.441 54.035 26.5993 53.51 27.3826 52.46C28.1826 51.41 28.5826 49.96 28.5826 48.11C28.5826 46.2767 28.1493 44.8434 27.2826 43.81C26.4326 42.76 25.316 42.235 23.9326 42.235ZM38.1861 54.485C36.2528 54.485 34.6945 53.9184 33.5111 52.785C32.3445 51.635 31.7611 50.1017 31.7611 48.185C31.7611 46.3017 32.4278 44.71 33.7611 43.41C35.0778 42.0934 36.7195 41.435 38.6861 41.435C40.6028 41.435 42.1361 42.01 43.2861 43.16C44.4528 44.31 45.0361 45.8267 45.0361 47.71C45.0361 49.5934 44.3695 51.2017 43.0361 52.535C41.7028 53.835 40.0861 54.485 38.1861 54.485ZM38.6361 54.185C39.8695 54.185 40.9611 53.6684 41.9111 52.635C42.8611 51.6017 43.3361 50.2017 43.3361 48.435C43.3361 46.535 42.8278 44.9267 41.8111 43.61C40.8278 42.2934 39.5195 41.6767 37.8861 41.76C36.7028 41.81 35.6695 42.3517 34.7861 43.385C33.9028 44.4184 33.4611 45.7934 33.4611 47.51C33.4611 49.3267 33.9361 50.9017 34.8861 52.235C35.8528 53.535 37.1028 54.185 38.6361 54.185ZM59.2828 48.635C59.3495 48.585 59.4161 48.5767 59.4828 48.61C59.5661 48.6267 59.5911 48.6767 59.5578 48.76C57.8578 52.56 55.5245 54.46 52.5578 54.46C50.7578 54.46 49.2911 53.86 48.1578 52.66C47.0411 51.4434 46.4828 49.9267 46.4828 48.11C46.4828 46.26 47.1578 44.685 48.5078 43.385C49.8745 42.085 51.4745 41.435 53.3078 41.435C54.6411 41.435 55.7911 41.8517 56.7578 42.685C57.7245 43.5017 58.2078 44.485 58.2078 45.635C58.2078 45.9017 58.1745 46.1767 58.1078 46.46H48.0078C47.9911 46.5434 47.9828 46.735 47.9828 47.035C47.9828 48.8184 48.4495 50.3267 49.3828 51.56C50.3328 52.7767 51.6745 53.385 53.4078 53.385C56.1245 53.385 58.0828 51.8017 59.2828 48.635ZM53.0578 41.735C51.9745 41.735 50.9161 42.1267 49.8828 42.91C48.8495 43.6934 48.2328 44.7934 48.0328 46.21H55.4828C56.1828 46.21 56.5328 45.8434 56.5328 45.11C56.5328 44.0767 56.2411 43.26 55.6578 42.66C55.0745 42.0434 54.2078 41.735 53.0578 41.735ZM72.1465 53.96L72.2965 53.985C72.3632 53.985 72.3882 54.0267 72.3715 54.11C72.3715 54.1934 72.3465 54.235 72.2965 54.235H70.6965C70.2965 54.235 69.9465 54.085 69.6465 53.785C69.6298 53.7684 69.4965 53.5434 69.2465 53.11L68.9215 52.235L68.4465 51.06C68.0298 49.9267 67.5465 49.085 66.9965 48.535C66.4798 47.985 65.6798 47.71 64.5965 47.71H63.7965V51.56C63.7965 52.6267 63.9048 53.3184 64.1215 53.635C64.3548 53.9684 64.9132 54.135 65.7965 54.135C65.8632 54.135 65.8965 54.16 65.8965 54.21C65.8798 54.26 65.8465 54.2934 65.7965 54.31C65.3632 54.31 64.9048 54.3017 64.4215 54.285L63.6715 54.235H62.4965L61.7715 54.285C61.2715 54.3017 60.8048 54.31 60.3715 54.31C60.3048 54.31 60.2715 54.285 60.2715 54.235C60.2882 54.185 60.3215 54.1517 60.3715 54.135C61.2548 54.135 61.8132 53.9684 62.0465 53.635C62.2632 53.3184 62.3715 52.6267 62.3715 51.56V44.335C62.3715 43.285 62.2632 42.6017 62.0465 42.285C61.8132 41.9517 61.2548 41.785 60.3715 41.785C60.3048 41.785 60.2715 41.76 60.2715 41.71C60.2882 41.66 60.3215 41.6267 60.3715 41.61C60.8048 41.61 61.2715 41.6184 61.7715 41.635L62.4965 41.685H63.6715L64.4215 41.635C64.9048 41.6184 65.3632 41.61 65.7965 41.61C65.8632 41.61 65.8965 41.635 65.8965 41.685C65.8798 41.735 65.8465 41.7684 65.7965 41.785C64.9132 41.785 64.3548 41.9517 64.1215 42.285C63.9048 42.6017 63.7965 43.285 63.7965 44.335V47.51H64.8965H65.0965C66.0298 47.51 66.7298 47.2934 67.1965 46.86C67.6798 46.4267 68.0798 45.7517 68.3965 44.835L68.8465 43.46C69.0632 42.7767 69.3132 42.285 69.5965 41.985C69.8798 41.6684 70.2548 41.51 70.7215 41.51C71.1048 41.51 71.4382 41.6184 71.7215 41.835C72.0215 42.035 72.1715 42.285 72.1715 42.585C72.1715 42.8184 72.0798 43.01 71.8965 43.16C71.7298 43.31 71.5215 43.385 71.2715 43.385C70.6215 43.385 70.1048 43.0184 69.7215 42.285C69.5882 42.2517 69.3798 42.6517 69.0965 43.485L68.5965 44.985C68.1465 46.4184 67.3382 47.285 66.1715 47.585C67.0215 47.685 67.7215 47.96 68.2715 48.41C68.8215 48.86 69.2965 49.56 69.6965 50.51L70.4715 52.335L70.8215 53.135C71.1048 53.6184 71.5465 53.8934 72.1465 53.96ZM79.3947 54.26L78.2197 54.235L77.4947 54.26C76.9947 54.2767 76.5281 54.285 76.0947 54.285C76.0447 54.285 76.0114 54.2684 75.9947 54.235C75.9781 54.2017 75.9781 54.1684 75.9947 54.135C76.0114 54.1017 76.0447 54.085 76.0947 54.085C76.9947 54.1017 77.5531 53.9517 77.7697 53.635C78.0031 53.3017 78.1197 52.61 78.1197 51.56V41.91H77.5447C76.1947 41.91 75.1864 42.2434 74.5197 42.91C73.8697 43.56 73.2781 44.8184 72.7447 46.685C72.7281 46.7184 72.6947 46.735 72.6447 46.735C72.5947 46.735 72.5697 46.7184 72.5697 46.685L73.5697 41.335C73.5864 41.3017 73.6114 41.3017 73.6447 41.335C74.1781 41.585 75.1197 41.71 76.4697 41.71H81.1447C82.5447 41.71 83.5031 41.585 84.0197 41.335C84.0364 41.3017 84.0614 41.3017 84.0947 41.335L85.0947 46.685C85.0781 46.7017 85.0447 46.71 84.9947 46.71C84.9614 46.71 84.9364 46.7017 84.9197 46.685C84.4031 44.8517 83.8031 43.5934 83.1197 42.91C82.4531 42.2434 81.4531 41.91 80.1197 41.91H79.5447V51.585C79.5447 52.6517 79.6781 53.3434 79.9447 53.66C80.2281 53.9934 80.9031 54.16 81.9697 54.16C82.0197 54.16 82.0614 54.185 82.0947 54.235C82.0781 54.285 82.0364 54.3184 81.9697 54.335C81.4531 54.335 80.8947 54.3184 80.2947 54.285L79.3947 54.26ZM98.6912 54.235H93.9662L93.2412 54.285C92.7412 54.3017 92.2745 54.31 91.8412 54.31C91.7745 54.31 91.7412 54.285 91.7412 54.235C91.7579 54.185 91.7912 54.1517 91.8412 54.135C92.7245 54.135 93.2829 53.9684 93.5162 53.635C93.7329 53.3184 93.8412 52.6267 93.8412 51.56V44.36C93.8412 43.31 93.7329 42.6267 93.5162 42.31C93.2829 41.9767 92.7245 41.81 91.8412 41.81C91.7745 41.81 91.7412 41.785 91.7412 41.735C91.7579 41.685 91.7912 41.6517 91.8412 41.635C92.2745 41.635 92.7412 41.6517 93.2412 41.685L93.9662 41.71H97.9662C99.5829 41.71 100.85 41.9434 101.766 42.41C102.7 42.8767 103.166 43.56 103.166 44.46C103.166 45.4434 102.633 46.185 101.566 46.685C100.466 47.2017 99.1162 47.4934 97.5162 47.56V47.635C99.1495 47.635 100.566 47.8267 101.766 48.21C103.233 48.66 103.966 49.535 103.966 50.835C103.966 51.885 103.483 52.7184 102.516 53.335C101.55 53.935 100.275 54.235 98.6912 54.235ZM95.3662 44.61V47.51H96.1412C97.8412 47.51 99.1412 47.26 100.041 46.76C100.958 46.2434 101.416 45.485 101.416 44.485C101.416 43.7017 101.041 43.085 100.291 42.635C99.5579 42.185 98.6245 41.96 97.4912 41.96H95.5162C95.4162 42.4434 95.3662 43.3267 95.3662 44.61ZM96.1912 47.735H95.3662V50.935C95.3662 52.5017 95.4162 53.5184 95.5162 53.985H98.0162C99.2495 53.985 100.25 53.6934 101.016 53.11C101.8 52.5267 102.191 51.7684 102.191 50.835C102.191 49.585 101.458 48.6934 99.9912 48.16C99.5745 48.0267 99.1245 47.935 98.6412 47.885C97.8245 47.785 97.0079 47.735 96.1912 47.735ZM122.143 54.11C122.21 54.11 122.243 54.135 122.243 54.185C122.227 54.235 122.193 54.2684 122.143 54.285C121.71 54.285 121.243 54.2684 120.743 54.235L119.993 54.21L118.868 54.235C118.802 54.235 118.527 54.2434 118.043 54.26C117.56 54.2934 117.118 54.3184 116.718 54.335C116.652 54.3517 116.618 54.335 116.618 54.285C116.585 54.2017 116.618 54.16 116.718 54.16C117.618 54.1267 118.177 53.96 118.393 53.66C118.61 53.3434 118.718 52.6434 118.718 51.56V42.81L114.093 49.36L114.618 50.185C114.035 50.6184 113.743 50.9184 113.743 51.085L113.693 51.135L107.593 42.985V50.335C107.593 51.5517 107.843 52.4934 108.343 53.16C108.843 53.81 109.585 54.135 110.568 54.135C110.635 54.135 110.668 54.16 110.668 54.21C110.652 54.26 110.618 54.2934 110.568 54.31C110.185 54.31 109.543 54.2934 108.643 54.26C108.193 54.2434 107.793 54.235 107.443 54.235L106.693 54.285C106.193 54.3017 105.727 54.31 105.293 54.31C105.227 54.31 105.193 54.285 105.193 54.235C105.21 54.185 105.243 54.1517 105.293 54.135C106.193 54.135 106.76 53.9684 106.993 53.635C107.227 53.2684 107.343 52.56 107.343 51.51C107.343 47.71 107.335 45.335 107.318 44.385C107.318 43.3184 107.202 42.6184 106.968 42.285C106.735 41.9517 106.168 41.785 105.268 41.785C105.202 41.785 105.168 41.76 105.168 41.71C105.185 41.66 105.218 41.6267 105.268 41.61C105.702 41.61 106.177 41.6184 106.693 41.635L107.443 41.685H108.318L113.918 49.16L119.218 41.685H119.993L120.743 41.635C121.243 41.6184 121.71 41.61 122.143 41.61C122.21 41.61 122.243 41.635 122.243 41.685C122.227 41.735 122.193 41.7684 122.143 41.785C121.243 41.785 120.677 41.9517 120.443 42.285C120.227 42.6017 120.118 43.285 120.118 44.335V51.535C120.118 52.6017 120.227 53.2934 120.443 53.61C120.677 53.9434 121.243 54.11 122.143 54.11ZM136.236 48.635C136.303 48.585 136.369 48.5767 136.436 48.61C136.519 48.6267 136.544 48.6767 136.511 48.76C134.811 52.56 132.478 54.46 129.511 54.46C127.711 54.46 126.244 53.86 125.111 52.66C123.994 51.4434 123.436 49.9267 123.436 48.11C123.436 46.26 124.111 44.685 125.461 43.385C126.828 42.085 128.428 41.435 130.261 41.435C131.594 41.435 132.744 41.8517 133.711 42.685C134.678 43.5017 135.161 44.485 135.161 45.635C135.161 45.9017 135.128 46.1767 135.061 46.46H124.961C124.944 46.5434 124.936 46.735 124.936 47.035C124.936 48.8184 125.403 50.3267 126.336 51.56C127.286 52.7767 128.628 53.385 130.361 53.385C133.078 53.385 135.036 51.8017 136.236 48.635ZM130.011 41.735C128.928 41.735 127.869 42.1267 126.836 42.91C125.803 43.6934 125.186 44.7934 124.986 46.21H132.436C133.136 46.21 133.486 45.8434 133.486 45.11C133.486 44.0767 133.194 43.26 132.611 42.66C132.028 42.0434 131.161 41.735 130.011 41.735ZM143.625 54.46C141.775 54.46 140.283 53.8684 139.15 52.685C138.016 51.5017 137.45 49.985 137.45 48.135C137.45 46.235 138.141 44.6434 139.525 43.36C140.908 42.0767 142.508 41.435 144.325 41.435C145.475 41.435 146.516 41.735 147.45 42.335C148.383 42.935 148.85 43.5767 148.85 44.26C148.85 44.51 148.766 44.71 148.6 44.86C148.433 45.01 148.216 45.085 147.95 45.085C147.066 45.085 146.516 44.085 146.3 42.085C145.7 41.8184 145 41.685 144.2 41.685C142.7 41.685 141.45 42.21 140.45 43.26C139.45 44.2767 138.95 45.56 138.95 47.11C138.95 48.8934 139.441 50.3934 140.425 51.61C141.425 52.7934 142.741 53.385 144.375 53.385C147.091 53.385 149.05 51.8017 150.25 48.635C150.3 48.5684 150.358 48.56 150.425 48.61C150.508 48.6434 150.541 48.6934 150.525 48.76C149.825 50.4267 148.883 51.8017 147.7 52.885C146.516 53.935 145.158 54.46 143.625 54.46ZM157.666 54.26L156.491 54.235L155.766 54.26C155.266 54.2767 154.8 54.285 154.366 54.285C154.316 54.285 154.283 54.2684 154.266 54.235C154.25 54.2017 154.25 54.1684 154.266 54.135C154.283 54.1017 154.316 54.085 154.366 54.085C155.266 54.1017 155.825 53.9517 156.041 53.635C156.275 53.3017 156.391 52.61 156.391 51.56V41.91H155.816C154.466 41.91 153.458 42.2434 152.791 42.91C152.141 43.56 151.55 44.8184 151.016 46.685C151 46.7184 150.966 46.735 150.916 46.735C150.866 46.735 150.841 46.7184 150.841 46.685L151.841 41.335C151.858 41.3017 151.883 41.3017 151.916 41.335C152.45 41.585 153.391 41.71 154.741 41.71H159.416C160.816 41.71 161.775 41.585 162.291 41.335C162.308 41.3017 162.333 41.3017 162.366 41.335L163.366 46.685C163.35 46.7017 163.316 46.71 163.266 46.71C163.233 46.71 163.208 46.7017 163.191 46.685C162.675 44.8517 162.075 43.5934 161.391 42.91C160.725 42.2434 159.725 41.91 158.391 41.91H157.816V51.585C157.816 52.6517 157.95 53.3434 158.216 53.66C158.5 53.9934 159.175 54.16 160.241 54.16C160.291 54.16 160.333 54.185 160.366 54.235C160.35 54.285 160.308 54.3184 160.241 54.335C159.725 54.335 159.166 54.3184 158.566 54.285L157.666 54.26ZM177.105 48.635C177.172 48.585 177.238 48.5767 177.305 48.61C177.388 48.6267 177.413 48.6767 177.38 48.76C175.68 52.56 173.347 54.46 170.38 54.46C168.58 54.46 167.113 53.86 165.98 52.66C164.863 51.4434 164.305 49.9267 164.305 48.11C164.305 46.26 164.98 44.685 166.33 43.385C167.697 42.085 169.297 41.435 171.13 41.435C172.463 41.435 173.613 41.8517 174.58 42.685C175.547 43.5017 176.03 44.485 176.03 45.635C176.03 45.9017 175.997 46.1767 175.93 46.46H165.83C165.813 46.5434 165.805 46.735 165.805 47.035C165.805 48.8184 166.272 50.3267 167.205 51.56C168.155 52.7767 169.497 53.385 171.23 53.385C173.947 53.385 175.905 51.8017 177.105 48.635ZM170.88 41.735C169.797 41.735 168.738 42.1267 167.705 42.91C166.672 43.6934 166.055 44.7934 165.855 46.21H173.305C174.005 46.21 174.355 45.8434 174.355 45.11C174.355 44.0767 174.063 43.26 173.48 42.66C172.897 42.0434 172.03 41.735 170.88 41.735ZM181.519 36.335C182.252 36.335 183.044 36.5267 183.894 36.91C184.694 37.2767 185.444 37.91 186.144 38.81C186.81 39.6767 187.144 40.6767 187.144 41.81C187.144 44.61 185.76 46.01 182.994 46.01H181.594C181.41 46.01 181.319 46.2684 181.319 46.785V49.86C181.319 49.91 181.277 49.9434 181.194 49.96C181.11 49.96 181.069 49.9267 181.069 49.86V46.135C181.069 45.535 181.119 45.1267 181.219 44.91C181.335 44.6934 181.544 44.585 181.844 44.585H183.444C184.494 44.585 185.327 44.3267 185.944 43.81C186.577 43.2934 186.894 42.6267 186.894 41.81C186.894 41.0267 186.702 40.3017 186.319 39.635C185.952 38.9517 185.469 38.4684 184.869 38.185C183.669 38.635 182.569 38.8267 181.569 38.76C180.552 38.6934 180.044 38.3017 180.044 37.585C180.044 36.7517 180.535 36.335 181.519 36.335ZM181.219 54.485C180.852 54.485 180.535 54.36 180.269 54.11C180.002 53.86 179.869 53.5517 179.869 53.185C179.869 52.8017 179.994 52.485 180.244 52.235C180.494 51.985 180.819 51.86 181.219 51.86C181.585 51.86 181.902 51.985 182.169 52.235C182.435 52.485 182.569 52.8017 182.569 53.185C182.569 53.535 182.435 53.8434 182.169 54.11C181.919 54.36 181.602 54.485 181.219 54.485Z" fill="#5F523E"/>
</svg>
